<svg xmlns="http://www.w3.org/2000/svg" viewBox="0 0 512 512"><g><g id="lm-kit-icon-color"><g><path d="M256,503c-66,0-128-25.7-174.7-72.3S9,322,9,256,34.7,128,81.3,81.3,190,9,256,9s128,25.7,174.7,72.3,72.3,108.7,72.3,174.7-25.7,128-72.3,174.7-108.7,72.3-174.7,72.3Z" style="fill: #512bd4;"></path><path d="M256,18c32.1,0,63.3,6.3,92.6,18.7,28.3,12,53.8,29.1,75.7,51,21.9,21.9,39,47.3,51,75.7,12.4,29.3,18.7,60.5,18.7,92.6s-6.3,63.3-18.7,92.6c-12,28.3-29.1,53.8-51,75.7-21.9,21.9-47.3,39-75.7,51-29.3,12.4-60.5,18.7-92.6,18.7s-63.3-6.3-92.6-18.7c-28.3-12-53.8-29.1-75.7-51-21.9-21.9-39-47.3-51-75.7-12.4-29.3-18.7-60.5-18.7-92.6s6.3-63.3,18.7-92.6c12-28.3,29.1-53.8,51-75.7,21.9-21.9,47.3-39,75.7-51,29.3-12.4,60.5-18.7,92.6-18.7M256,0C114.6,0,0,114.6,0,256s114.6,256,256,256,256-114.6,256-256S397.4,0,256,0h0Z" style="fill: #fff;"></path></g><polygon points="237.1 102.7 269.1 102.7 269.1 244.9 411.3 244.9 411.3 276.9 237.1 276.9 237.1 102.7" style="fill: #fff;"></polygon><polygon points="141.7 109.7 173.7 109.7 173.7 338.3 402.3 338.3 402.3 370.3 141.7 370.3 141.7 109.7" style="fill: #fff;"></polygon></g></g></svg>