<?xml version="1.0" encoding="UTF-8"?>
<svg id="Layer_1" xmlns="http://www.w3.org/2000/svg" version="1.1" viewBox="0 0 512 512">
  <!-- Generator: Adobe Illustrator 29.0.1, SVG Export Plug-In . SVG Version: 2.1.0 Build 192)  -->
  <g>
    <path d="M256,503c-66,0-128-25.7-174.7-72.3S9,322,9,256s25.7-128,72.3-174.7C127.9,34.6,190,9,256,9s128,25.7,174.7,72.3c46.7,46.6,72.3,108.7,72.3,174.7s-25.7,128-72.3,174.7-108.7,72.3-174.7,72.3Z" style="fill: #512bd4;"/>
    <path d="M256,18c32.1,0,63.3,6.3,92.6,18.7,28.3,12,53.8,29.1,75.7,51,21.9,21.9,39,47.3,51,75.7,12.4,29.3,18.7,60.5,18.7,92.6s-6.3,63.3-18.7,92.6c-12,28.3-29.1,53.8-51,75.7s-47.3,39-75.7,51c-29.3,12.4-60.5,18.7-92.6,18.7s-63.3-6.3-92.6-18.7c-28.3-12-53.8-29.1-75.7-51-21.9-21.9-39-47.3-51-75.7-12.4-29.3-18.7-60.5-18.7-92.6s6.3-63.3,18.7-92.6c12-28.3,29.1-53.8,51-75.7,21.9-21.9,47.3-39,75.7-51,29.3-12.4,60.5-18.7,92.6-18.7M256,0C114.6,0,0,114.6,0,256s114.6,256,256,256,256-114.6,256-256S397.4,0,256,0h0Z" style="fill: #fff;"/>
  </g>
  <path d="M125.3,377.1l31.9-248.6,99,204.6,98.7-204.6,31.9,248.6h-25.5l-19.9-172.1-85.5,178.6-85.2-178.6-19.9,172.1h-25.5Z" style="fill: #fff;"/>
</svg>